<svg t="1745990099132" class="icon" viewBox="0 0 1024 1024" version="1.1" xmlns="http://www.w3.org/2000/svg" p-id="1978" width="128" height="128"><path d="M512 0c282.768 0 512 229.232 512 512 0 282.768-229.232 512-512 512C229.232 1024 0 794.768 0 512 0 229.232 229.232 0 512 0zM178.768 468.944c-22 9.488-36.672 27.696-43.84 51.872-1.776 5.952-1.776 12.384-2.816 19.216-1.92 12.64 3.296 27.376 6.768 35.44 12.592 29.072 49.408 57.024 94.944 45.84a73.296 73.296 0 0 0 28.928-14.112c2.96-2.352 12.128-13.44 12.128-13.44 0.096 38.448 0.096 65.712-23.808 80.608-27.664 17.232-64.88 9.104-86.304-7.2-3.92-2.976-9.312-6.944-11.424-11.568l-0.928-0.704-14.016 15.072-2.56 2.544 8.176 7.872c9.408 7.44 19.36 13.888 31.952 18.288 8.96 3.136 18.736 3.552 29.632 5.328l13.76-0.24 10.96-0.688c10.56-1.984 19.968-4.048 27.776-8.56 15.888-9.216 26.768-19.52 33.824-37.52 6.944-17.776 5.36-44.176 5.36-68.544V465.92h-22.4v26.176s-8.112-9.328-11.2-11.808c-7.456-5.952-15.744-11.552-25.888-14.816-4.928-1.568-10.304-2.336-15.872-3.248-16.288-2.672-32.368 2.08-43.152 6.72z m691.664-89.872l-4.912 0.016-19.12 2.08a159.36 159.36 0 0 0-31.04 9.968c-33.184 14.48-56 43.84-65.536 81.968-16.928 67.68 23.856 136.576 92.144 153.312 49.328 12.112 101.376-10.816 118.032-40.752l-19.344-13.68-0.48-0.448-8.848 11.568c-6.768 8.352-17.6 14.784-28.464 18.992-5.824 2.24-12.528 3.248-19.36 4.4-7.328 1.232-17.984 0.928-24.96-0.24-41.248-6.784-65.44-27.936-78.848-62.048-4.64-11.84-6.992-22.784-6.992-38.224 0-11.52 3.04-29.568 5.824-37.52 11.12-31.712 31.728-53.952 64.848-63.68 35.088-10.304 61.296 2.32 80.944 18.064 3.04 2.432 6.816 5.984 8.4 9.728l21.44-15.504v-0.48c-17.024-23.568-47.312-38.224-88.64-37.504z m-450.464 6.048H364l-0.24 238.048 24.512 0.24v-110.704h40.8l65.568 110.72h29.856l-68.8-112.8V510.4c28.432-5.28 41.92-10.912 54.336-32.192 13.488-23.104 5.648-61.344-10.976-74.56a82 82 0 0 0-31.952-15.52c-13.472-3.36-30.24-3.008-47.12-3.008z m146.496 0v238.288h24.272l0.224-110.704c55.36 0.08 101.888 2.736 118.72-35.888 3.728-8.464 7.488-22.048 5.376-34.96-1.312-8-2.368-14.96-5.12-21.312-18.56-42.656-82.368-35.648-143.472-35.44zM211.2 482.128c38.24 0 57.28 18.688 63.44 50.48 1.328 6.848 1.472 16.496 0 23.392-1.04 5.024-2.608 9.92-4.672 14.592-8.448 19.024-26.128 28.48-50.144 32.432-10.848 1.76-21.696-2.08-28.224-5.344-21.904-10.96-43.392-38.432-32.416-73.184a61.152 61.152 0 0 1 35.44-38.656c4.992-2.08 10.816-3.712 16.576-3.712z m278.992-36.816c1.92 12.032-3.472 22.048-8.16 28.016-13.76 17.52-45.28 17.84-77.2 17.36l-8.32-0.128a1133.808 1133.808 0 0 0-8.272-0.096v-83.136c50.048-0.08 94.976-5.952 101.952 37.984z m198.512 0.448c1.76 11.12-3.216 20.96-7.472 26.656-15.52 20.8-53.488 18.352-90.272 18.048v-83.136c49.36-0.08 90.928-4.96 97.76 38.432z" fill="#2CA6B0" p-id="1979"></path><path d="M64 402.832L115.2 352l51.2 50.832-51.2 50.832L64 402.832z m220.96 25.6l-29.6-29.376 29.6-29.376 29.584 29.376-29.568 29.376z" fill="#50D3D1" p-id="1980"></path><path d="M274.368 383.552h-14.56l12.992 13.328H120.224l30.496-30.688H121.008l-34.512 34.736 34.512 34.752H150.72L120.224 404.96h152.576l-12.992 13.328h14.56l16.944-17.376z" fill="#FFFFFF" p-id="1981"></path></svg>